<svg xmlns="http://www.w3.org/2000/svg" viewBox="0 0 122.41 100.3"><defs><style>.cls-1{fill:#252625;}.cls-2{fill:#3c8e07;}</style></defs><title>logoShoar</title><g id="Capa_1" data-name="Capa 1"><rect class="cls-1" x="2.5" y="2.5" width="117.41" height="95.3" rx="5.65"/><path class="cls-2" d="M125.1,41.88A3.15,3.15,0,0,1,128.25,45v84a3.15,3.15,0,0,1-3.15,3.15H19A3.16,3.16,0,0,1,15.84,129V45A3.15,3.15,0,0,1,19,41.88H125.1m0-5H19A8.14,8.14,0,0,0,10.84,45v84A8.15,8.15,0,0,0,19,137.17H125.1a8.15,8.15,0,0,0,8.15-8.15V45a8.14,8.14,0,0,0-8.15-8.14Z" transform="translate(-10.84 -36.88)"/><path class="cls-2" d="M42.24,104.27A13.73,13.73,0,0,1,36,101.05a7,7,0,0,1-2.13-5.14v-2l10.28,0v1.83a3.55,3.55,0,0,0,2.11,3.18A12.83,12.83,0,0,0,52.19,100,12.26,12.26,0,0,0,58,98.9a3.44,3.44,0,0,0,2-3.15V92.27a2.88,2.88,0,0,0-1.31-2.35,10.91,10.91,0,0,0-3.26-1.62c-1.31-.42-3.12-.91-5.45-1.48l-.23,0-.29-.06-.67-.16a69.1,69.1,0,0,1-7.63-2.25A15.14,15.14,0,0,1,36,81.22a6.47,6.47,0,0,1-2.08-4.92V74a6.83,6.83,0,0,1,2.11-5,13.48,13.48,0,0,1,6.19-3.18,39.24,39.24,0,0,1,9.9-1.08,36.49,36.49,0,0,1,9.61,1.09,13.05,13.05,0,0,1,6,3.22,7.27,7.27,0,0,1,2.11,5.11v2.11l-10.33,0v-2a3.49,3.49,0,0,0-1.9-3.18,11.19,11.19,0,0,0-5.5-1.09,13.1,13.1,0,0,0-5.86,1,3.23,3.23,0,0,0-2,3v2.52A3,3,0,0,0,45.56,79a9.81,9.81,0,0,0,3.24,1.6c1.3.4,3.08.89,5.34,1.45l.77.18.72.21a4.71,4.71,0,0,1,.52.09l.46.13a68.2,68.2,0,0,1,7.14,2,12.72,12.72,0,0,1,4.63,2.84,6.35,6.35,0,0,1,1.9,4.78v3.58a7,7,0,0,1-2.1,5.14A13.58,13.58,0,0,1,62,104.27a38.19,38.19,0,0,1-9.82,1.09A39,39,0,0,1,42.24,104.27Z" transform="translate(-10.84 -36.88)"/><path class="cls-2" d="M80.41,65.13H90.69V105H80.41Zm22.51,20.05a3.39,3.39,0,0,0-1.51-3,8.44,8.44,0,0,0-4.6-1,8.22,8.22,0,0,0-4.6,1,3.5,3.5,0,0,0-1.52,3.11l-1-3.92a10.55,10.55,0,0,1,4.89-4A18.19,18.19,0,0,1,101.74,76q5.51,0,8.48,2a6.33,6.33,0,0,1,3,5.63V105H102.92Z" transform="translate(-10.84 -36.88)"/><path class="cls-2" d="M108.15,57.51,112,53.92a7,7,0,0,0,1.17-1.33,2,2,0,0,0,.39-1.05v0a.81.81,0,0,0-.34-.71,1.83,1.83,0,0,0-1-.25,1.92,1.92,0,0,0-1.23.34,1.2,1.2,0,0,0-.41,1V52h-2.45v-.08a2.26,2.26,0,0,1,.45-1.43,2.61,2.61,0,0,1,1.32-.86A7.22,7.22,0,0,1,112,49.3a8,8,0,0,1,2.19.25,2.78,2.78,0,0,1,1.32.74,1.75,1.75,0,0,1,.44,1.23v0a2.47,2.47,0,0,1-.41,1.24,7.23,7.23,0,0,1-1.23,1.49l-3.19,3.13h4.81v1.22h-7.79Z" transform="translate(-10.84 -36.88)"/><path class="cls-2" d="M119.42,58.5a3.29,3.29,0,0,1-1.38-.66,1.39,1.39,0,0,1-.47-1v-.73H120v.64a.47.47,0,0,0,.18.41,1.33,1.33,0,0,0,.56.26,3.2,3.2,0,0,0,.87.1,2.37,2.37,0,0,0,1.14-.23.67.67,0,0,0,.39-.61V55.35a.78.78,0,0,0-.35-.68,1.72,1.72,0,0,0-1-.24h-1.17V53.22h1.17a1.36,1.36,0,0,0,.78-.2.61.61,0,0,0,.28-.54V51.23a.55.55,0,0,0-.33-.5,1.83,1.83,0,0,0-.92-.19,2.53,2.53,0,0,0-.72.09,1,1,0,0,0-.47.24.5.5,0,0,0-.15.37V52h-2.39v-.73a1.37,1.37,0,0,1,.45-1,2.83,2.83,0,0,1,1.3-.65,8.33,8.33,0,0,1,2.09-.23,5.63,5.63,0,0,1,2.61.5,1.55,1.55,0,0,1,.92,1.42v1.29a.9.9,0,0,1-.4.67,4,4,0,0,1-1.12.63,3,3,0,0,1,1.33.58,1.2,1.2,0,0,1,.48,1v1.32a1.53,1.53,0,0,1-.47,1.12,3,3,0,0,1-1.34.7,8.12,8.12,0,0,1-2.11.24A9.15,9.15,0,0,1,119.42,58.5Z" transform="translate(-10.84 -36.88)"/></g></svg>